<svg width="75" height="84" viewBox="0 0 75 84" fill="none" xmlns="http://www.w3.org/2000/svg">
<g clip-path="url(#clip0_190_2)" filter="url(#filter0_d_190_2)">
<path d="M10.447 67.5427L4.98181 0.752441L70.2498 0.886662L64.471 67.5427L37.8621 75.2474L10.447 67.5427Z" fill="#A8A8B2"/>
<path d="M37.8621 68.7969V7.1134L64.7398 7.20288L59.9469 62.3912L37.8621 68.7969Z" fill="#BBBBC8"/>
<path d="M58.0651 14.9978H16.7184L17.8385 23.0605H37.4589L18.1522 31.348L19.2717 39.1422H47.7175L46.6869 50.0272L37.0557 51.909L28.3208 49.6693L27.6487 43.4873H19.6302L20.705 56.344L37.9068 61.137L54.3922 55.8961L56.4977 30.7653H39.0711L58.0646 22.8815L58.0651 14.9978Z" fill="#F0F0FF"/>
</g>
<defs>
<filter id="filter0_d_190_2" x="0.981812" y="0.627075" width="73.2679" height="82.7457" filterUnits="userSpaceOnUse" color-interpolation-filters="sRGB">
<feFlood flood-opacity="0" result="BackgroundImageFix"/>
<feColorMatrix in="SourceAlpha" type="matrix" values="0 0 0 0 0 0 0 0 0 0 0 0 0 0 0 0 0 0 127 0" result="hardAlpha"/>
<feOffset dy="4"/>
<feGaussianBlur stdDeviation="2"/>
<feComposite in2="hardAlpha" operator="out"/>
<feColorMatrix type="matrix" values="0 0 0 0 0 0 0 0 0 0 0 0 0 0 0 0 0 0 0.25 0"/>
<feBlend mode="normal" in2="BackgroundImageFix" result="effect1_dropShadow_190_2"/>
<feBlend mode="normal" in="SourceGraphic" in2="effect1_dropShadow_190_2" result="shape"/>
</filter>
<clipPath id="clip0_190_2">
<rect width="65.268" height="74.7458" fill="white" transform="translate(4.98181 0.627075)"/>
</clipPath>
</defs>
</svg>
