<svg width="101" height="76" viewBox="0 0 101 76" fill="none" xmlns="http://www.w3.org/2000/svg">
<path d="M99.6989 28.5751C99.4199 28.3292 96.909 26.3144 91.5155 26.3144C90.1205 26.3144 88.6789 26.4619 87.2842 26.7076C86.2612 19.1886 80.356 15.552 80.1235 15.3554L78.6821 14.4707L77.7522 15.896C76.5898 17.8126 75.7063 19.975 75.1948 22.1865C74.2185 26.4619 74.8228 30.4918 76.8687 33.9317C74.4044 35.4061 70.4056 35.7501 69.5687 35.7991H3.54237C1.82203 35.7991 0.427075 37.2736 0.427075 39.0919C0.334201 45.1857 1.31055 51.2795 3.31002 57.0292C5.58827 63.3197 8.98269 67.9884 13.3535 70.8388C18.2821 74.033 26.3261 75.8513 35.393 75.8513C39.4849 75.8513 43.5765 75.4583 47.6219 74.6719C53.2479 73.5906 58.6417 71.5266 63.6169 68.5289C67.6942 66.0307 71.3682 62.8446 74.4973 59.0934C79.7515 52.8521 82.8668 45.8737 85.145 39.6816H86.075C91.7942 39.6816 95.328 37.2736 97.2808 35.2094C98.5827 33.9317 99.5591 32.3592 100.257 30.5901L100.675 29.3123L99.6989 28.5751Z" fill="#A8A8B2"/>
<path d="M9.23867 34.1067H18.0731C18.4917 34.1067 18.8637 33.7629 18.8637 33.2715V24.9171C18.8637 24.4747 18.5381 24.0817 18.0731 24.0817H9.23867C8.82024 24.0817 8.44824 24.4255 8.44824 24.9171V33.2715C8.49468 33.7629 8.82024 34.1069 9.23867 34.1069V34.1067ZM21.4209 34.1067H30.2555C30.6739 34.1067 31.0459 33.7629 31.0459 33.2715V24.9171C31.0459 24.4747 30.7203 24.0817 30.2555 24.0817H21.4207C21.0023 24.0817 20.6303 24.4255 20.6303 24.9171V33.2715C20.6769 33.7629 21.0025 34.1069 21.4207 34.1069M33.8355 34.1069H42.67C43.0885 34.1069 43.4605 33.7629 43.4605 33.2715V24.9171C43.4605 24.4747 43.1349 24.0817 42.67 24.0817H33.8355C33.417 24.0817 33.045 24.4255 33.045 24.9171V33.2715C33.045 33.7629 33.3706 34.1069 33.8355 34.1069ZM46.0643 34.1069H54.8989C55.3173 34.1069 55.6893 33.7629 55.6893 33.2715V24.9171C55.6893 24.4747 55.3637 24.0817 54.8989 24.0817H46.0643C45.6458 24.0817 45.2739 24.4255 45.2739 24.9171V33.2715C45.2739 33.7629 45.6458 34.1069 46.0643 34.1069ZM21.4209 22.165H30.2553C30.6737 22.165 31.0457 21.772 31.0457 21.3296V12.9752C31.0457 12.5328 30.7202 12.1396 30.2553 12.1396H21.4207C21.0023 12.1396 20.6303 12.4836 20.6303 12.9752V21.3296C20.6769 21.7718 21.0026 22.165 21.4209 22.165ZM33.8355 22.165H42.67C43.0885 22.165 43.4605 21.772 43.4605 21.3296V12.9752C43.4605 12.5328 43.1349 12.1396 42.67 12.1396H33.8355C33.417 12.1396 33.045 12.4836 33.045 12.9752V21.3296C33.045 21.7718 33.3706 22.165 33.8355 22.165ZM46.0643 22.165H54.8989C55.3173 22.165 55.6893 21.772 55.6893 21.3296V12.9752C55.6893 12.5328 55.3171 12.1396 54.8989 12.1396H46.0643C45.6458 12.1396 45.2739 12.4836 45.2739 12.9752V21.3296C45.2739 21.7718 45.6458 22.165 46.0643 22.165ZM46.0643 10.174H54.8989C55.3173 10.174 55.6893 9.82995 55.6893 9.33859V0.984131C55.6893 0.541759 55.3171 0.14856 54.8989 0.14856H46.0643C45.6458 0.14856 45.2739 0.492586 45.2739 0.984131V9.33859C45.2739 9.78078 45.6458 10.174 46.0643 10.174ZM58.386 34.1069H67.2206C67.639 34.1069 68.011 33.7629 68.011 33.2715V24.9171C68.011 24.4747 67.6856 24.0817 67.2206 24.0817H58.3861C57.9675 24.0817 57.5955 24.4255 57.5955 24.9171V33.2715C57.6422 33.7629 57.9677 34.1069 58.3861 34.1069" fill="#A8A8B2"/>
</svg>
