<svg width="76" height="76" viewBox="0 0 76 76" fill="none" xmlns="http://www.w3.org/2000/svg">
<g clip-path="url(#clip0_190_6)">
<path d="M74.2458 34.6699L41.6111 2.0369C39.7328 0.157457 36.6846 0.157457 34.804 2.0369L28.0272 8.81366L36.6238 17.4103C38.6215 16.7353 40.9124 17.1881 42.5048 18.7805C44.1048 20.3832 44.5545 22.6936 43.8631 24.6977L52.1479 32.9828C54.1523 32.2923 56.465 32.739 58.066 34.3426C60.3034 36.5791 60.3034 40.204 58.066 42.442C55.828 44.6802 52.2031 44.6802 49.9639 42.442C48.281 40.7573 47.8652 38.2857 48.7172 36.2124L40.9909 28.4861L40.99 48.8184C41.5501 49.0954 42.0617 49.4612 42.5048 49.9016C44.7422 52.1382 44.7422 55.7634 42.5048 58.0031C40.2668 60.2402 36.6402 60.2402 34.4054 58.0031C32.168 55.7634 32.168 52.1385 34.4054 49.9019C34.9416 49.3655 35.5788 48.9406 36.2802 48.652V28.1302C35.5778 27.8434 34.9402 27.4184 34.4054 26.8802C32.7102 25.1874 32.3026 22.7 33.1712 20.6185L24.6969 12.1434L2.31991 34.5189C0.439587 36.4001 0.439587 39.4486 2.31991 41.3284L34.9552 73.9619C36.8341 75.8416 39.8817 75.8416 41.7629 73.9619L74.2455 41.4799C76.1252 39.5996 76.1255 36.5493 74.2458 34.6699Z" fill="#A8A8B2"/>
</g>
<defs>
<clipPath id="clip0_190_6">
<rect width="74.7458" height="74.7458" fill="white" transform="translate(0.909668 0.627075)"/>
</clipPath>
</defs>
</svg>
