<svg width="72" height="72" viewBox="0 0 72 72" fill="none" xmlns="http://www.w3.org/2000/svg">
<path d="M43.49 67.7074C43.49 67.942 43.5446 68.1733 43.6495 68.3831C43.7544 68.5929 43.9067 68.7754 44.0944 68.9162C44.282 69.0569 44.4998 69.152 44.7306 69.194C44.9614 69.236 45.1988 69.2236 45.424 69.1579C53.2941 66.8862 60.0792 61.8492 64.5315 54.9734C68.9838 48.0976 70.8037 39.8454 69.6565 31.7347C68.5093 23.6241 64.4722 16.2003 58.2877 10.829C52.1032 5.45767 44.1872 2.5 35.9958 2.5C27.8044 2.5 19.8884 5.45767 13.7039 10.829C7.51942 16.2003 3.48229 23.6241 2.33511 31.7347C1.18793 39.8454 3.00785 48.0976 7.46011 54.9734C11.9124 61.8492 18.6976 66.8862 26.5677 69.1579C26.7928 69.2236 27.0302 69.236 27.261 69.194C27.4918 69.152 27.7096 69.0569 27.8973 68.9162C28.0849 68.7754 28.2372 68.5929 28.3421 68.3831C28.447 68.1733 28.5016 67.942 28.5016 67.7074V60.6061C26.4288 61.2324 24.195 61.0431 22.2572 60.0769C20.3193 59.1108 18.8237 57.4408 18.0763 55.4085C17.2315 52.8368 15.8281 50.484 13.9666 48.5187C22.5788 50.6038 22.7299 56.1942 28.5923 53.5652C28.7695 51.6043 29.423 49.7163 30.4961 48.0655C23.848 47.31 16.8373 46.2524 16.8373 34.7694C16.7796 31.8022 17.8611 28.9256 19.8592 26.7313C18.949 24.1498 19.0571 21.3186 20.1614 18.814C20.1614 18.814 22.6695 17.9981 28.411 21.8359C33.3548 20.4703 38.5764 20.4703 43.5202 21.8359C49.2315 17.9679 51.7396 18.814 51.7396 18.814C52.8439 21.3186 52.952 24.1498 52.0418 26.7313C54.0426 28.924 55.1244 31.8016 55.0636 34.7694C55.0636 46.2826 48.053 47.31 41.3747 48.0353C42.8049 50.0974 43.5261 52.5685 43.4295 55.0761L43.49 67.7074Z" stroke="#770BCC" stroke-width="4" stroke-linecap="round" stroke-linejoin="round"/>
</svg>
