<svg width="32" height="33" viewBox="0 0 32 33" fill="none" xmlns="http://www.w3.org/2000/svg">
<g clip-path="url(#clip0_128_8)">
<path d="M4.70349 30.0617V16.5L16.0049 5.19862L27.3063 16.5V30.0617C27.3063 31.31 26.2943 32.322 25.046 32.322H6.96377C5.71546 32.322 4.70349 31.31 4.70349 30.0617Z" fill="#F0F0FF"/>
<path fill-rule="evenodd" clip-rule="evenodd" d="M18.2652 32.3219H13.7446V25.5411C13.7446 24.2928 14.7566 23.2808 16.0049 23.2808C17.2532 23.2808 18.2652 24.2928 18.2652 25.5411V32.3219Z" fill="#A8A8B2"/>
<path fill-rule="evenodd" clip-rule="evenodd" d="M14.4067 3.60035C15.2894 2.71767 16.7205 2.71767 17.6032 3.60035L31.1648 17.162C32.0475 18.0447 32.0475 19.4758 31.1648 20.3585C30.2822 21.2412 28.851 21.2412 27.9683 20.3585L16.0049 8.39513L4.04153 20.3585C3.15882 21.2412 1.7277 21.2412 0.845003 20.3585C-0.0376898 19.4758 -0.0376898 18.0447 0.845003 17.162L14.4067 3.60035Z" fill="#A8A8B2"/>
</g>
<defs>
<clipPath id="clip0_128_8">
<rect width="31.6439" height="31.6439" fill="white" transform="translate(0.182983 0.678055)"/>
</clipPath>
</defs>
</svg>
