<svg xmlns="http://www.w3.org/2000/svg" xmlns:xlink="http://www.w3.org/1999/xlink" viewBox="0,0,256,256" width="48px" height="48px"><g fill="#760bca" fill-rule="nonzero" stroke="none" stroke-width="1" stroke-linecap="butt" stroke-linejoin="miter" stroke-miterlimit="10" stroke-dasharray="" stroke-dashoffset="0" font-family="none" font-weight="none" font-size="none" text-anchor="none" style="mix-blend-mode: normal"><g transform="scale(5.33333,5.33333)"><path d="M7.21094,8c-2.83933,0 -5.21094,2.22212 -5.21094,5v22c0,2.77788 2.37161,5 5.21094,5h33.57812c2.83855,0 5.21094,-2.22212 5.21094,-5v-22c0,-2.77788 -2.37161,-5 -5.21094,-5zM7.21094,10h33.57812c0.64333,0 1.22966,0.17834 1.72461,0.47266l-17.19531,15.04492c-0.00065,0 -0.0013,0 -0.00195,0c-0.75973,0.66502 -1.87308,0.66502 -2.63281,0l-17.19727,-15.04492c0.49495,-0.29432 1.08128,-0.47266 1.72461,-0.47266zM4.19531,12l17.17188,15.02344c1.50227,1.31498 3.76531,1.31498 5.26758,0l17.16992,-15.02344c0.11881,0.31519 0.19531,0.64843 0.19531,1v22c0,0.35157 -0.07643,0.68481 -0.19531,1l-11.13086,-9.73828c-0.20073,-0.18137 -0.46638,-0.27367 -0.73633,-0.25586c-0.40595,0.02754 -0.75475,0.29828 -0.88213,0.68471c-0.12738,0.38643 -0.00795,0.81151 0.30205,1.07506l11.15625,9.76172c-0.49497,0.29431 -1.08171,0.47266 -1.72461,0.47266h-33.57812c-0.64333,0 -1.22966,-0.17834 -1.72461,-0.47266l11.15625,-9.76172c0.32801,-0.27913 0.44046,-0.73691 0.27913,-1.13626c-0.16133,-0.39934 -0.56021,-0.65055 -0.99007,-0.62351c-0.22489,0.01463 -0.43824,0.10479 -0.60547,0.25586l-11.13086,9.73828c-0.11881,-0.31519 -0.19531,-0.64843 -0.19531,-1v-22c0,-0.35157 0.0765,-0.68481 0.19531,-1z"></path></g></g></svg>