<svg width="32" height="33" viewBox="0 0 32 33" fill="none" xmlns="http://www.w3.org/2000/svg">
<g clip-path="url(#clip0_128_86)">
<path fill-rule="evenodd" clip-rule="evenodd" d="M15.3447 10.7314C15.6408 9.84319 15.1608 8.88316 14.2726 8.58709C13.3844 8.29102 12.4243 8.77103 12.1283 9.65923L8.18798 21.4801H6.95568C6.01945 21.4801 5.26047 22.2391 5.26047 23.1754C5.26047 24.1115 6.01945 24.8705 6.95568 24.8705H7.05784L5.34747 30.0018C5.05139 30.8898 5.53141 31.85 6.41961 32.1461C7.30781 32.4422 8.26784 31.9621 8.56389 31.0738L10.6317 24.8705H14.3016V25.4356C14.3016 26.3718 15.0606 27.1308 15.9968 27.1308C16.933 27.1308 17.692 26.3718 17.692 25.4356V24.8705H21.3619L23.4296 31.0738C23.7257 31.9621 24.6858 32.4422 25.5739 32.1461C26.4622 31.85 26.9423 30.8898 26.6462 30.0018L24.9358 24.8705H25.038C25.9742 24.8705 26.7332 24.1115 26.7332 23.1754C26.7332 22.2391 25.9742 21.4801 25.038 21.4801H23.8057L19.8653 9.65923C19.5692 8.77103 18.6092 8.29102 17.721 8.58709C16.8328 8.88316 16.3528 9.84319 16.6489 10.7314L20.2318 21.4801H17.692V20.9151C17.692 19.9788 16.933 19.2199 15.9968 19.2199C15.0606 19.2199 14.3016 19.9788 14.3016 20.9151V21.4801H11.7618L15.3447 10.7314Z" fill="#F0F0FF"/>
<path fill-rule="evenodd" clip-rule="evenodd" d="M15.9969 0.694611C16.9331 0.694611 17.6921 1.45358 17.6921 2.38982V5.52721C19.3488 6.19781 20.5174 7.82202 20.5174 9.71917C20.5174 12.2158 18.4935 14.2397 15.9969 14.2397C13.5002 14.2397 11.4763 12.2158 11.4763 9.71917C11.4763 7.82202 12.645 6.19781 14.3017 5.52721V2.38982C14.3017 1.45358 15.0606 0.694611 15.9969 0.694611Z" fill="#A8A8B2"/>
</g>
<defs>
<clipPath id="clip0_128_86">
<rect width="31.6439" height="31.6439" fill="white" transform="translate(0.174927 0.678055)"/>
</clipPath>
</defs>
</svg>
