<svg width="33" height="33" viewBox="0 0 33 33" fill="none" xmlns="http://www.w3.org/2000/svg">
<path fill-rule="evenodd" clip-rule="evenodd" d="M4.95 1.75356H9.36118C9.8999 1.75356 10.3637 2.1338 10.4694 2.66206L11.5722 8.17604C11.6463 8.54657 11.5303 8.92962 11.2631 9.19681L9.05751 11.4024C8.92036 11.5396 8.75159 11.6378 8.56832 11.6901L8.5685 17.8712C8.56853 18.6514 7.93608 19.2839 7.15588 19.284C6.37567 19.284 5.74318 18.6515 5.74316 17.8713L5.74298 11.6901C5.55967 11.6379 5.39085 11.5396 5.25367 11.4024L3.04807 9.19681C2.78088 8.92962 2.6649 8.54657 2.73901 8.17604L3.84181 2.66206C3.94746 2.1338 4.41129 1.75356 4.95 1.75356Z" fill="#F0F0FF"/>
<path fill-rule="evenodd" clip-rule="evenodd" d="M26.0414 1.78418C25.6866 1.71814 25.3215 1.72748 24.9705 1.81162C24.4622 1.93341 24.1037 2.38793 24.1037 2.91065V8.02313C24.1037 8.64728 23.5976 9.15326 22.9735 9.15326H21.7391C21.1149 9.15326 20.6089 8.64728 20.6089 8.02313V3.07201C20.6089 2.61089 20.3288 2.19602 19.901 2.02372C19.551 1.88272 19.1743 1.82037 18.7975 1.84107C18.4207 1.86177 18.0531 1.96503 17.7206 2.14353C17.6888 2.16061 17.6578 2.17921 17.6278 2.19926C16.3263 3.06794 15.2949 4.28458 14.651 5.71066C14.0071 7.13676 13.7765 8.715 13.9855 10.2657C14.1946 11.8164 14.8348 13.2772 15.8333 14.4819C16.5975 15.4039 17.548 16.1474 18.6177 16.6667L18.6177 27.7831C18.6177 29.875 20.3177 31.5686 22.4097 31.5607C24.4825 31.553 26.1621 29.8763 26.1732 27.8034L26.2342 16.5337C27.2391 16.0039 28.1295 15.2731 28.8478 14.3822C29.8204 13.1762 30.4392 11.7241 30.6357 10.1875C30.8323 8.65076 30.5986 7.08968 29.961 5.67777C29.324 4.26725 28.3085 3.06084 27.0274 2.19247C26.7308 1.98905 26.3952 1.84996 26.0414 1.78418Z" fill="#F0F0FF"/>
<path fill-rule="evenodd" clip-rule="evenodd" d="M2.94925 16.9748C3.22293 16.8711 3.51421 16.8221 3.80658 16.8305H10.5684C11.1618 16.8305 11.731 17.0663 12.1506 17.4859C12.5703 17.9056 12.806 18.4747 12.806 19.0682V25.6681C12.806 27.1669 12.2107 28.604 11.151 29.6639C10.0913 30.7235 8.65399 31.3188 7.15534 31.3188C5.65668 31.3188 4.21939 30.7235 3.15969 29.6639C2.09998 28.604 1.50464 27.1669 1.50464 25.6681V19.0682C1.50451 18.7668 1.56527 18.4685 1.68327 18.1912C1.80139 17.9136 1.97444 17.6627 2.19199 17.4537C2.40955 17.2446 2.66713 17.0817 2.94925 16.9748Z" fill="#A8A8B2"/>
</svg>
