<svg xmlns="http://www.w3.org/2000/svg" fill="none" viewBox="0 0 14 14"><g id="office-worker--office-worker-human-resources"><path id="Union" fill="#f0f0ff" fill-rule="evenodd" d="M5.5 2c0 1.10457 -0.89543 2 -2 2s-2 -0.89543 -2 -2 0.89543 -2 2 -2 2 0.89543 2 2Zm0.04492 7.9705V10H5.5l-0.44525 3.562c-0.03128 0.2502 -0.24398 0.438 -0.49614 0.438H2.44139c-0.25216 0 -0.46486 -0.1878 -0.49614 -0.438L1.5 10h-1c-0.276142 0 -0.5 -0.22386 -0.5 -0.5v-1c0 -0.92826 0.368749 -1.8185 1.02513 -2.47487C1.6815 5.36875 2.57174 5 3.5 5c0.92826 0 1.8185 0.36875 2.47487 1.02513 0.45657 0.45656 0.77397 1.02628 0.9249 1.64324 -0.80809 0.44939 -1.35485 1.31191 -1.35485 2.30213Z" clip-rule="evenodd" stroke-width="1"></path><path id="Union_2" fill="#a8a8b2" fill-rule="evenodd" d="M9.677 7.93726c0 -0.13808 0.11193 -0.25 0.25 -0.25h0.9126c0.138 0 0.25 0.11192 0.25 0.25v0.65087H9.677v-0.65087Zm-1.5 0.65087v-0.65087c0 -0.9665 0.7835 -1.75 1.75 -1.75h0.9126c0.9665 0 1.75 0.7835 1.75 1.75v0.65087c0.7632 0.00028 1.3818 0.61908 1.3818 1.38237v2.6471c0 0.7634 -0.6189 1.3823 -1.3823 1.3823H8.17728c-0.76346 0 -1.38236 -0.6189 -1.38236 -1.3823V9.9705c0 -0.76336 0.61875 -1.38221 1.38208 -1.38237Z" clip-rule="evenodd" stroke-width="1"></path></g></svg>