<svg width="33" height="33" viewBox="0 0 33 33" fill="none" xmlns="http://www.w3.org/2000/svg">
<g clip-path="url(#clip0_128_33)">
<g filter="url(#filter0_d_128_33)">
<path d="M7.61987 16.5006L7.6312 22.1889C7.63172 22.434 7.71191 22.6723 7.85967 22.8679L7.86127 22.87L7.86308 22.8724L7.86744 22.878L7.87895 22.8929L7.9133 22.9358C7.94128 22.9702 7.97946 23.0158 8.02803 23.071C8.12511 23.1814 8.26407 23.3303 8.44648 23.5048C8.81111 23.8536 9.35136 24.3059 10.0801 24.7541C11.5448 25.6553 13.7503 26.5266 16.7718 26.5266C19.7933 26.5266 22.0016 25.6553 23.469 24.7548C24.1991 24.3068 24.7408 23.8547 25.1066 23.5064C25.2894 23.3319 25.4289 23.1831 25.5263 23.0729C25.5751 23.0178 25.6133 22.9723 25.6413 22.9379L25.6759 22.8951L25.6874 22.8803L25.6917 22.8746L25.6935 22.8722C25.6935 22.8722 25.6951 22.8702 24.7953 22.1865L25.6951 22.8702C25.8445 22.6735 25.9255 22.4333 25.9255 22.1863L25.9243 16.5L18.344 19.7844C17.3406 20.2191 16.2022 20.2191 15.1989 19.7844L7.61987 16.5006Z" fill="#F0F0FF"/>
<path fill-rule="evenodd" clip-rule="evenodd" d="M4.78248 9.87479C5.40664 9.87479 5.91262 10.5073 5.91262 11.2875V26.8622C5.91262 27.6425 5.40664 28.2749 4.78248 28.2749C4.15833 28.2749 3.65234 27.6425 3.65234 26.8622V11.2875C3.65234 10.5073 4.15833 9.87479 4.78248 9.87479Z" fill="#A8A8B2"/>
<path fill-rule="evenodd" clip-rule="evenodd" d="M4.78384 25.5355C3.23665 25.5355 1.98242 26.7897 1.98242 28.3368C1.98242 29.884 3.23665 31.1382 4.78384 31.1382C6.33102 31.1382 7.58525 29.884 7.58525 28.3368C7.58525 26.7897 6.33102 25.5355 4.78384 25.5355Z" fill="#F0F0FF"/>
<path fill-rule="evenodd" clip-rule="evenodd" d="M17.2218 2.69384C16.9352 2.56964 16.6099 2.56964 16.3232 2.69384L1.6314 9.05942C1.21807 9.2385 0.950562 9.64596 0.950562 10.0964C0.950562 10.5469 1.21807 10.9543 1.6314 11.1334L16.3232 17.499C16.6099 17.6232 16.9352 17.6232 17.2218 17.499L31.9136 11.1334C32.3268 10.9543 32.5944 10.5469 32.5944 10.0964C32.5944 9.64596 32.3268 9.2385 31.9136 9.05942L17.2218 2.69384Z" fill="#F0F0FF"/>
<path fill-rule="evenodd" clip-rule="evenodd" d="M7.61987 13.7281L16.3232 17.499C16.6098 17.6232 16.9351 17.6232 17.2218 17.499L25.9255 13.7279V21.5168L25.9243 16.5L18.344 19.7843C17.3407 20.2191 16.2022 20.2191 15.1989 19.7843L7.61987 16.5006V13.7281ZM7.61987 16.5006L7.62986 21.5168H7.61987V16.5006Z" fill="#A8A8B2"/>
</g>
</g>
<defs>
<filter id="filter0_d_128_33" x="-3.04944" y="2.60069" width="39.6439" height="36.5375" filterUnits="userSpaceOnUse" color-interpolation-filters="sRGB">
<feFlood flood-opacity="0" result="BackgroundImageFix"/>
<feColorMatrix in="SourceAlpha" type="matrix" values="0 0 0 0 0 0 0 0 0 0 0 0 0 0 0 0 0 0 127 0" result="hardAlpha"/>
<feOffset dy="4"/>
<feGaussianBlur stdDeviation="2"/>
<feComposite in2="hardAlpha" operator="out"/>
<feColorMatrix type="matrix" values="0 0 0 0 0 0 0 0 0 0 0 0 0 0 0 0 0 0 0.25 0"/>
<feBlend mode="normal" in2="BackgroundImageFix" result="effect1_dropShadow_128_33"/>
<feBlend mode="normal" in="SourceGraphic" in2="effect1_dropShadow_128_33" result="shape"/>
</filter>
<clipPath id="clip0_128_33">
<rect width="31.6439" height="31.6439" fill="white" transform="translate(0.950562 0.678055)"/>
</clipPath>
</defs>
</svg>
