<svg width="73" height="69" viewBox="0 0 73 69" fill="none" xmlns="http://www.w3.org/2000/svg">
<path d="M16.8373 66.7142H2.1511V24.6199H16.8373V66.7142ZM47.3276 38.3391C46.4784 38.3391 45.6375 38.5063 44.8529 38.8313C44.0683 39.1563 43.3555 39.6326 42.755 40.2331C42.1545 40.8336 41.6781 41.5465 41.3531 42.3311C41.0282 43.1157 40.8609 43.9566 40.8609 44.8058V66.7142H25.4193V24.6199H40.8609V29.4246C44.4802 26.3606 49.0527 24.6513 53.7944 24.5897C63.3736 24.5897 70.0217 31.691 70.0217 45.1684V66.7142H53.7944V44.8058C53.7984 43.954 53.634 43.1099 53.3108 42.3218C52.9876 41.5337 52.5119 40.8173 51.911 40.2136C51.3102 39.6099 50.5959 39.1308 49.8094 38.804C49.0228 38.4771 48.1794 38.3088 47.3276 38.3088V38.3391ZM17.1092 10.0546C17.1092 11.5488 16.6661 13.0094 15.836 14.2517C15.0059 15.4941 13.8261 16.4624 12.4456 17.0342C11.0652 17.6059 9.54623 17.7556 8.08078 17.4641C6.61533 17.1726 5.26923 16.4531 4.2127 15.3965C3.15617 14.34 2.43666 12.9939 2.14516 11.5284C1.85367 10.063 2.00327 8.54401 2.57506 7.16358C3.14685 5.78316 4.11515 4.60329 5.3575 3.77318C6.59984 2.94307 8.06045 2.5 9.55461 2.5C11.5477 2.51595 13.4538 3.31891 14.8575 4.73395C16.2612 6.14899 17.0488 8.06143 17.0488 10.0546H17.1092Z" stroke="#770BCC" stroke-width="4" stroke-linecap="round" stroke-linejoin="round"/>
</svg>
