<svg width="74" height="74" viewBox="0 0 74 74" fill="none" xmlns="http://www.w3.org/2000/svg">
<g clip-path="url(#clip0_190_41)">
<path d="M36.6594 0.600952C18.1406 0.600952 19.2969 8.6318 19.2969 8.6318L19.3175 16.952H36.9896V19.4499H12.2984C12.2984 19.4499 0.448212 18.106 0.448212 36.7913C0.448212 55.4772 10.7913 54.8145 10.7913 54.8145H16.9641V46.1435C16.9641 46.1435 16.6313 35.8004 27.1421 35.8004H44.6697C44.6697 35.8004 54.5172 35.9595 54.5172 26.2831V10.2837C54.5172 10.2837 56.0129 0.600952 36.6594 0.600952ZM26.915 6.19612C27.3326 6.19575 27.7462 6.27772 28.1321 6.43736C28.518 6.597 28.8686 6.83116 29.1639 7.12645C29.4592 7.42174 29.6933 7.77236 29.853 8.15825C30.0126 8.54414 30.0946 8.95772 30.0942 9.37533C30.0946 9.79293 30.0126 10.2065 29.853 10.5924C29.6933 10.9783 29.4592 11.3289 29.1639 11.6242C28.8686 11.9195 28.518 12.1537 28.1321 12.3133C27.7462 12.4729 27.3326 12.5549 26.915 12.5545C26.4974 12.5549 26.0838 12.4729 25.6979 12.3133C25.3121 12.1537 24.9614 11.9195 24.6661 11.6242C24.3708 11.3289 24.1367 10.9783 23.977 10.5924C23.8174 10.2065 23.7354 9.79293 23.7358 9.37533C23.7354 8.95772 23.8174 8.54414 23.977 8.15825C24.1367 7.77236 24.3708 7.42174 24.6661 7.12645C24.9614 6.83116 25.3121 6.597 25.6979 6.43736C26.0838 6.27772 26.4974 6.19575 26.915 6.19612Z" fill="#A8A8B2"/>
<path d="M37.1853 73.1697C55.7041 73.1697 54.5478 65.1389 54.5478 65.1389L54.5272 56.819H36.8548V54.321H61.5461C61.5461 54.321 73.3962 55.665 73.3962 36.9791C73.3962 18.2935 63.0531 18.9562 63.0531 18.9562H56.8804V27.6268C56.8804 27.6268 57.2131 37.97 46.7023 37.97H29.1747C29.1747 37.97 19.3272 37.8109 19.3272 47.4876V63.4873C19.3272 63.4873 17.8319 73.1697 37.185 73.1697H37.1853ZM46.9297 67.5751C46.5121 67.5755 46.0985 67.4935 45.7126 67.3339C45.3268 67.1742 44.9761 66.9401 44.6808 66.6448C44.3856 66.3495 44.1514 65.9989 43.9918 65.613C43.8321 65.2271 43.7501 64.8135 43.7505 64.3959C43.7501 63.9783 43.832 63.5647 43.9917 63.1788C44.1513 62.7928 44.3854 62.4422 44.6807 62.1469C44.976 61.8515 45.3267 61.6173 45.7126 61.4577C46.0985 61.298 46.5121 61.2161 46.9297 61.2164C47.3473 61.2161 47.7609 61.298 48.1468 61.4577C48.5327 61.6173 48.8833 61.8515 49.1786 62.1468C49.4739 62.442 49.708 62.7927 49.8677 63.1786C50.0273 63.5644 50.1093 63.978 50.1089 64.3956C50.1093 64.8132 50.0273 65.2268 49.8677 65.6127C49.708 65.9986 49.4739 66.3492 49.1786 66.6445C48.8833 66.9398 48.5327 67.174 48.1468 67.3336C47.7609 67.4932 47.3473 67.5755 46.9297 67.5751Z" fill="#F0F0FF"/>
</g>
<defs>
<clipPath id="clip0_190_41">
<rect width="73.1314" height="72.8389" fill="white" transform="translate(0.406799 0.580444)"/>
</clipPath>
</defs>
</svg>
