<svg width="29" height="28" viewBox="0 0 29 28" fill="none" xmlns="http://www.w3.org/2000/svg">
<path fill-rule="evenodd" clip-rule="evenodd" d="M21.2173 2.57897C21.4884 1.76498 21.0487 0.885163 20.2346 0.613837C19.4206 0.342509 18.5408 0.782418 18.2695 1.5964L15.1624 10.9178C14.891 11.7318 15.3309 12.6116 16.1449 12.883C16.9589 13.1543 17.8387 12.7144 18.11 11.9004L21.2173 2.57897ZM13.5919 3.06057C14.1986 3.66727 14.1986 4.65095 13.5919 5.25766L11.5833 7.26626L13.5919 9.27486C14.1986 9.88156 14.1986 10.8652 13.5919 11.4719C12.9852 12.0786 12.0015 12.0786 11.3948 11.4719L8.28767 8.3648C7.68097 7.7581 7.68097 6.77442 8.28767 6.16772L11.3948 3.06057C12.0015 2.45387 12.9852 2.45387 13.5919 3.06057ZM22.7876 3.06057C23.3943 2.45387 24.3781 2.45387 24.9848 3.06057L28.0919 6.16772C28.6987 6.77442 28.6987 7.7581 28.0919 8.3648L24.9848 11.4719C24.3781 12.0786 23.3943 12.0786 22.7876 11.4719C22.1809 10.8652 22.1809 9.88156 22.7876 9.27486L24.7963 7.26626L22.7876 5.25766C22.1809 4.65095 22.1809 3.66727 22.7876 3.06057Z" fill="#A8A8B2"/>
<path d="M4.27108 12.9746H0.453125V21.2603L4.24059 25.0477C5.79445 26.6017 7.90196 27.4746 10.0995 27.4746H22.2032C23.9192 27.4746 25.3104 26.0834 25.3104 24.3674C25.3104 22.6515 23.9192 21.2603 22.2032 21.2603H15.9888L10.1299 15.4015C8.57609 13.8476 6.46857 12.9746 4.27108 12.9746Z" fill="#F0F0FF"/>
<path fill-rule="evenodd" clip-rule="evenodd" d="M13.714 18.9939C13.8693 19.5862 13.7149 20.2429 13.2507 20.7071C12.5551 21.4027 11.4273 21.4027 10.7316 20.7071L7.72803 17.7034C7.22244 17.1978 6.40271 17.1978 5.89714 17.7034C5.39155 18.209 5.39155 19.0287 5.89714 19.5343L8.90073 22.5378C10.6075 24.2447 13.3748 24.2447 15.0816 22.5378C15.4646 22.1548 15.7616 21.7186 15.9728 21.2527L13.714 18.9939Z" fill="#A8A8B2"/>
</svg>
